<svg width="900" height="820" viewBox="0 0 900 820" xmlns="http://www.w3.org/2000/svg" font-family="'Segoe UI', Helvetica, Arial, sans-serif">
  <defs>
    <linearGradient id="spectrumFallback" x1="0" y1="0" x2="1" y2="0">
      <stop offset="0%" stop-color="#ff6b6b"/>
      <stop offset="50%" stop-color="#a463f2"/>
      <stop offset="100%" stop-color="#ffd166"/>
    </linearGradient>
  </defs>
  <style>
    .bg { fill: #060a14; }
    .panel { fill: #0d1424; stroke: #1c2740; stroke-width: 1; }
    .title { fill: #e8ecf6; font-size: 26px; font-weight: 700; }
    .subtitle { fill: #7c8aad; font-size: 11px; letter-spacing: 2px; }
    .badge-text { fill: #d8dcec; font-size: 12px; font-weight: 600; }
    .panel-title { fill: #4fd1ff; font-size: 15px; font-weight: 700; }
    .stat-label { fill: #aab4cf; font-size: 13px; }
    .stat-value { fill: #f2f4fb; font-size: 13px; font-weight: 700; }
    .legend { fill: #c9cfe6; font-size: 12px; }
    .big-number { fill: #ffffff; font-size: 40px; font-weight: 800; }
    .big-label { fill: #b9a8ff; font-size: 13px; font-weight: 700; }
    .big-sub { fill: #6f7aa0; font-size: 11px; }
    .section-title { fill: #f2f4fb; font-size: 16px; font-weight: 700; }
    .recent-text { fill: #cdd3ea; font-size: 13px; }
    .recent-repo { fill: #58a6ff; }
    .divider { stroke: #1c2740; stroke-width: 1; }
  </style>

  <rect class="bg" width="900" height="820" rx="14" />

  <!-- Cabeçalho -->
  <text x="450" y="42" text-anchor="middle" class="title">⚡ Live GitHub Signals</text>
  <text x="450" y="66" text-anchor="middle" class="subtitle">REAL ACTIVITY · CODE VELOCITY · BUILD CONSISTENCY</text>

  <rect x="240" y="82" width="160" height="24" rx="12" fill="#1b3a34" />
  <text x="320" y="98" text-anchor="middle" class="badge-text">📡 Live metrics · 4x daily</text>

  <rect x="500" y="82" width="190" height="24" rx="12" fill="#3a1b3a" />
  <text x="595" y="98" text-anchor="middle" class="badge-text">🤖 Automated pulse · 4x daily</text>

  <!-- Painel de estatísticas -->
  <rect class="panel" x="32" y="132" width="420" height="212" rx="12" />
  <text x="52" y="164" class="panel-title">Adan William 's GitHub Signal</text>
  
      <text x="52" y="196" class="stat-label">Total Stars Earned:</text>
      <text x="440" y="196" text-anchor="end" class="stat-value">22</text>

      <text x="52" y="222" class="stat-label">Total Commits:</text>
      <text x="440" y="222" text-anchor="end" class="stat-value">412</text>

      <text x="52" y="248" class="stat-label">Total PRs:</text>
      <text x="440" y="248" text-anchor="end" class="stat-value">0</text>

      <text x="52" y="274" class="stat-label">Total PRs Merged:</text>
      <text x="440" y="274" text-anchor="end" class="stat-value">0</text>

      <text x="52" y="300" class="stat-label">Total PRs Reviewed:</text>
      <text x="440" y="300" text-anchor="end" class="stat-value">0</text>

      <text x="52" y="326" class="stat-label">Total Issues:</text>
      <text x="440" y="326" text-anchor="end" class="stat-value">0</text>

      <text x="52" y="352" class="stat-label">Contributed to (last year):</text>
      <text x="440" y="352" text-anchor="end" class="stat-value">—</text>

  <!-- Espectro de código -->
  <rect class="panel" x="472" y="132" width="396" height="212" rx="12" />
  <text x="492" y="164" class="panel-title">Code Spectrum</text>
  <rect x="492.0" y="190" width="83.3" height="10" rx="0" fill="#3178c6" />
<rect x="575.3" y="190" width="77.2" height="10" rx="0" fill="#f1e05a" />
<rect x="652.5" y="190" width="72.8" height="10" rx="0" fill="#b07219" />
<rect x="725.2" y="190" width="62.9" height="10" rx="0" fill="#3572A5" />
<rect x="788.1" y="190" width="18.4" height="10" rx="0" fill="#563d7c" />
<rect x="806.6" y="190" width="14.6" height="10" rx="0" fill="#41b883" />
  
        <circle cx="492" cy="219" r="5" fill="#3178c6" />
        <text x="506" y="224" class="legend">TypeScript 23.39%</text>

        <circle cx="700" cy="219" r="5" fill="#f1e05a" />
        <text x="714" y="224" class="legend">JavaScript 21.69%</text>

        <circle cx="492" cy="245" r="5" fill="#b07219" />
        <text x="506" y="250" class="legend">Java 20.44%</text>

        <circle cx="700" cy="245" r="5" fill="#3572A5" />
        <text x="714" y="250" class="legend">Python 17.67%</text>

        <circle cx="492" cy="271" r="5" fill="#563d7c" />
        <text x="506" y="276" class="legend">CSS 5.17%</text>

        <circle cx="700" cy="271" r="5" fill="#41b883" />
        <text x="714" y="276" class="legend">Vue 4.10%</text>

  <!-- Contribuições -->
  <rect class="panel" x="32" y="368" width="836" height="200" rx="12" />
  <text x="180" y="440" text-anchor="middle" class="big-number">432</text>
  <text x="180" y="466" text-anchor="middle" class="big-label">Total Contributions</text>
  <text x="180" y="486" text-anchor="middle" class="big-sub">May 30, 2026 - Present</text>

  <line x1="310" y1="400" x2="310" y2="536" class="divider" />
  <circle cx="450" cy="450" r="44" fill="none" stroke="#4fd1ff" stroke-width="3" />
  <text x="450" y="462" text-anchor="middle" class="big-number" font-size="34">15</text>
  <text x="450" y="500" text-anchor="middle" class="big-label">Current Streak</text>
  <text x="450" y="520" text-anchor="middle" class="big-sub">Aug 30, 2026 - Present</text>

  <line x1="590" y1="400" x2="590" y2="536" class="divider" />
  <text x="720" y="440" text-anchor="middle" class="big-number">15</text>
  <text x="720" y="466" text-anchor="middle" class="big-label">Longest Streak</text>
  <text x="720" y="486" text-anchor="middle" class="big-sub">Aug 30, 2026 - Sep 13, 2026</text>

  <!-- Trabalho público recente -->
  <text x="32" y="612" class="section-title">🚀 Recent public work</text>
  
      <text x="48" y="656" class="recent-text">1. Pushed updates to <tspan class="recent-repo">adanwilliamdev/adanwilliamdev</tspan></text>

      <text x="48" y="684" class="recent-text">2. Pushed updates to <tspan class="recent-repo">adanwilliamdev/adanwilliamdev</tspan></text>

      <text x="48" y="712" class="recent-text">3. Pushed updates to <tspan class="recent-repo">adanwilliamdev/adanwilliamdev</tspan></text>

      <text x="48" y="740" class="recent-text">4. Pushed updates to <tspan class="recent-repo">adanwilliamdev/OrbNOC</tspan></text>

      <text x="48" y="768" class="recent-text">5. Pushed updates to <tspan class="recent-repo">adanwilliamdev/adanwilliamdev.github.io</tspan></text>

  <text x="450" y="806" text-anchor="middle" class="big-sub">Atualizado automaticamente via GitHub Actions</text>
</svg>