<svg width="900" height="2180" viewBox="0 0 900 2180" xmlns="http://www.w3.org/2000/svg" font-family="'Segoe UI', Helvetica, Arial, sans-serif">
  <style>
    .bg { fill: #060404; }
    .panel { fill: #120909; stroke: #3a1414; stroke-width: 1; }
    .title { fill: #f5efef; font-size: 34px; font-weight: 800; }
    .subtitle { fill: #a35a5a; font-size: 13px; letter-spacing: 3px; }
    .section-title { fill: #ff4757; font-size: 15px; font-weight: 700; letter-spacing: 1px; }
    .stat-label { fill: #c9adad; font-size: 13px; }
    .stat-value { fill: #f7f0f0; font-size: 13px; font-weight: 700; }
    .legend { fill: #ddc9c9; font-size: 12px; }
    .big-number { fill: #ffffff; font-size: 40px; font-weight: 800; }
    .big-label { fill: #ff6b6b; font-size: 13px; font-weight: 700; }
    .big-sub { fill: #8a6a6a; font-size: 11px; }
    .proj-name { fill: #ff4757; font-size: 17px; font-weight: 700; }
    .proj-desc { fill: #e0cccc; font-size: 13px; }
    .proj-stack { fill: #8a6a6a; font-size: 11px; font-style: italic; }
    .badge-text { fill: #f0dcdc; font-weight: 600; }
    .cert-text { fill: #c9adad; font-size: 13px; }
    .about-text { fill: #c9adad; font-size: 13px; }
    .contact-link { fill: #ff4757; font-size: 13px; font-weight: 600; }
    .divider { stroke: #3a1414; stroke-width: 1; }
  </style>

  <rect class="bg" width="900" height="2180" rx="16" />

  <!-- ===== HEADER ===== -->
  <text x="450" y="60" text-anchor="middle" class="title">Adan William</text>
  <text x="450" y="92" text-anchor="middle" class="subtitle">FULL STACK DEVELOPER · JAVA · SPRING BOOT · REACT</text>
  <text x="450" y="130" text-anchor="middle" class="about-text">Mais de 5 anos em infraestrutura e operações de TI, hoje migrando para desenvolvimento de software.</text>
  <text x="450" y="155" text-anchor="middle" class="big-sub">📡 Live metrics · 4x daily &#160;&#160;|&#160;&#160; 🤖 Automated pulse · 4x daily</text>  <line x1="32" y1="190" x2="868" y2="190" class="divider" />

  <!-- ===== SOBRE ===== -->
  <text x="32" y="230" class="section-title">🚀 SOBRE MIM</text>
  <text x="52" y="260" class="about-text">Profissional de TI com +5 anos em infraestrutura, redes e operações, em transição para desenvolvimento de software.</text>
  <text x="52" y="282" class="about-text">Foco em backend com Java e Spring Boot: APIs REST, microsserviços, filas, cache e bancos relacionais.</text>
  <text x="52" y="304" class="about-text">Frontend em React (e às vezes Vue ou Angular) para fechar o ciclo full stack.</text>
  <line x1="32" y1="320" x2="868" y2="320" class="divider" />

  <!-- ===== SINAIS ===== -->
  <text x="32" y="360" class="section-title">📊 SINAIS DO GITHUB</text>
  <rect class="panel" x="32" y="376" width="420" height="200" rx="12" />
  <text x="52" y="398" class="stat-label" font-weight="700">Adan William's Signal</text>
  
    <text x="52" y="394" class="stat-label">Total Stars Earned:</text>
    <text x="440" y="394" text-anchor="end" class="stat-value">22</text>
  

    <text x="52" y="420" class="stat-label">Total Commits:</text>
    <text x="440" y="420" text-anchor="end" class="stat-value">432</text>
  

    <text x="52" y="446" class="stat-label">Total PRs:</text>
    <text x="440" y="446" text-anchor="end" class="stat-value">0</text>
  

    <text x="52" y="472" class="stat-label">Total PRs Merged:</text>
    <text x="440" y="472" text-anchor="end" class="stat-value">0</text>
  

    <text x="52" y="498" class="stat-label">Total PRs Reviewed:</text>
    <text x="440" y="498" text-anchor="end" class="stat-value">0</text>
  

    <text x="52" y="524" class="stat-label">Total Issues:</text>
    <text x="440" y="524" text-anchor="end" class="stat-value">0</text>
  
  <rect class="panel" x="472" y="376" width="396" height="200" rx="12" />
  <text x="492" y="398" class="stat-label" font-weight="700">Code Spectrum</text>
  <rect x="492.0" y="388" width="83.2" height="10" fill="#3178c6" />
<rect x="575.2" y="388" width="77.3" height="10" fill="#f1e05a" />
<rect x="652.5" y="388" width="72.7" height="10" fill="#b07219" />
<rect x="725.2" y="388" width="63.0" height="10" fill="#59a5e0" />
<rect x="788.2" y="388" width="18.4" height="10" fill="#563d7c" />
<rect x="806.5" y="388" width="14.6" height="10" fill="#41b883" />
  <circle cx="492" cy="417" r="5" fill="#3178c6" />
            <text x="506" y="422" class="legend">TypeScript 23.36%</text>
<circle cx="700" cy="417" r="5" fill="#f1e05a" />
            <text x="714" y="422" class="legend">JavaScript 21.72%</text>
<circle cx="492" cy="443" r="5" fill="#b07219" />
            <text x="506" y="448" class="legend">Java 20.42%</text>
<circle cx="700" cy="443" r="5" fill="#59a5e0" />
            <text x="714" y="448" class="legend">Python 17.69%</text>
<circle cx="492" cy="469" r="5" fill="#563d7c" />
            <text x="506" y="474" class="legend">CSS 5.16%</text>
<circle cx="700" cy="469" r="5" fill="#41b883" />
            <text x="714" y="474" class="legend">Vue 4.10%</text>
  <line x1="32" y1="580" x2="868" y2="580" class="divider" />

  <!-- ===== CONTRIBUIÇÕES ===== -->
  <rect class="panel" x="32" y="610" width="836" height="170" rx="12" />
  <text x="180" y="680" text-anchor="middle" class="big-number">452</text>
  <text x="180" y="706" text-anchor="middle" class="big-label">Total Contributions</text>
  <text x="180" y="726" text-anchor="middle" class="big-sub">May 30, 2026 - Present</text>
  <line x1="310" y1="640" x2="310" y2="750" class="divider" />
  <circle cx="450" cy="690" r="44" fill="none" stroke="#ff4757" stroke-width="3" />
  <text x="450" y="702" text-anchor="middle" class="big-number" font-size="34">15</text>
  <text x="450" y="740" text-anchor="middle" class="big-label">Current Streak</text>
  <text x="450" y="760" text-anchor="middle" class="big-sub">Aug 30, 2026 - Present</text>
  <line x1="590" y1="640" x2="590" y2="750" class="divider" />
  <text x="720" y="680" text-anchor="middle" class="big-number">15</text>
  <text x="720" y="706" text-anchor="middle" class="big-label">Longest Streak</text>
  <text x="720" y="726" text-anchor="middle" class="big-sub">Aug 30, 2026 - Sep 13, 2026</text>
  <line x1="32" y1="780" x2="868" y2="780" class="divider" />

  <!-- ===== PROJETOS ===== -->
  <text x="32" y="820" class="section-title">🏆 PROJETOS EM DESTAQUE</text>
  <rect class="panel" x="32" y="836" width="836" height="404" rx="12" />
  
      <text x="52" y="850" class="proj-name">OrbNOC</text>
      <text x="52" y="872" class="proj-desc">NOC de monitoramento de rede em tempo real</text>
      <text x="52" y="894" class="proj-stack">Next.js · Node.js · PostgreSQL</text>
    

      <text x="52" y="928" class="proj-name">AutoCare</text>
      <text x="52" y="950" class="proj-desc">ERP para oficinas mecânicas</text>
      <text x="52" y="972" class="proj-stack">Java 21 · Spring Boot · React</text>
    

      <text x="52" y="1006" class="proj-name">Ticketing System</text>
      <text x="52" y="1028" class="proj-desc">Reserva de ingressos de alta concorrência</text>
      <text x="52" y="1050" class="proj-stack">Java · Spring Boot · Redis</text>
    

      <text x="52" y="1084" class="proj-name">Itaú Java AI Order System</text>
      <text x="52" y="1106" class="proj-desc">Pedidos com design patterns + IA de voz</text>
      <text x="52" y="1128" class="proj-stack">Java · Spring AI · OpenAI</text>
    

      <text x="52" y="1162" class="proj-name">SVA Platform</text>
      <text x="52" y="1184" class="proj-desc">Recrutamento com matching por IA</text>
      <text x="52" y="1206" class="proj-stack">FastAPI · React · Scikit-learn</text>
    
  <line x1="32" y1="1240" x2="868" y2="1240" class="divider" />

  <!-- ===== STACK ===== -->
  <text x="32" y="1280" class="section-title">💻 TECH STACK</text>
  <rect class="panel" x="32" y="1296" width="836" height="204" rx="12" />
  
      <rect x="52" y="1302" width="52" height="26" rx="13" fill="#2a0d0d" stroke="#3a1414" />
      <text x="78" y="1320" text-anchor="middle" class="badge-text" font-size="11">Java</text>
    

      <rect x="192" y="1302" width="108" height="26" rx="13" fill="#2a0d0d" stroke="#3a1414" />
      <text x="246" y="1320" text-anchor="middle" class="badge-text" font-size="11">Spring Boot</text>
    

      <rect x="332" y="1302" width="76" height="26" rx="13" fill="#2a0d0d" stroke="#3a1414" />
      <text x="370" y="1320" text-anchor="middle" class="badge-text" font-size="11">Node.js</text>
    

      <rect x="472" y="1302" width="68" height="26" rx="13" fill="#2a0d0d" stroke="#3a1414" />
      <text x="506" y="1320" text-anchor="middle" class="badge-text" font-size="11">Python</text>
    

      <rect x="612" y="1302" width="60" height="26" rx="13" fill="#2a0d0d" stroke="#3a1414" />
      <text x="642" y="1320" text-anchor="middle" class="badge-text" font-size="11">React</text>
    

      <rect x="752" y="1302" width="76" height="26" rx="13" fill="#2a0d0d" stroke="#3a1414" />
      <text x="790" y="1320" text-anchor="middle" class="badge-text" font-size="11">Angular</text>
    

      <rect x="52" y="1338" width="44" height="26" rx="13" fill="#2a0d0d" stroke="#3a1414" />
      <text x="74" y="1356" text-anchor="middle" class="badge-text" font-size="11">Vue</text>
    

      <rect x="192" y="1338" width="100" height="26" rx="13" fill="#2a0d0d" stroke="#3a1414" />
      <text x="242" y="1356" text-anchor="middle" class="badge-text" font-size="11">TypeScript</text>
    

      <rect x="332" y="1338" width="100" height="26" rx="13" fill="#2a0d0d" stroke="#3a1414" />
      <text x="382" y="1356" text-anchor="middle" class="badge-text" font-size="11">PostgreSQL</text>
    

      <rect x="472" y="1338" width="60" height="26" rx="13" fill="#2a0d0d" stroke="#3a1414" />
      <text x="502" y="1356" text-anchor="middle" class="badge-text" font-size="11">Redis</text>
    

      <rect x="612" y="1338" width="68" height="26" rx="13" fill="#2a0d0d" stroke="#3a1414" />
      <text x="646" y="1356" text-anchor="middle" class="badge-text" font-size="11">Docker</text>
    

      <rect x="752" y="1338" width="44" height="26" rx="13" fill="#2a0d0d" stroke="#3a1414" />
      <text x="774" y="1356" text-anchor="middle" class="badge-text" font-size="11">Git</text>
    
  <line x1="32" y1="1500" x2="868" y2="1500" class="divider" />

  <!-- ===== CERTIFICAÇÕES ===== -->
  <text x="32" y="1540" class="section-title">🎓 CERTIFICAÇÕES</text>
  <rect class="panel" x="32" y="1556" width="836" height="84" rx="12" />
  
    <text x="52" y="1560" class="cert-text">• CI&amp;T — Java AI Copilot · DIO · 53h · Set 2026</text>
  

    <text x="52" y="1586" class="cert-text">• Itaú — Java with Artificial Intelligence · DIO · 45h · Set 2026</text>
  
  <line x1="32" y1="1640" x2="868" y2="1640" class="divider" />

  <!-- ===== CONTATO ===== -->
  <text x="32" y="1680" class="section-title">📫 CONTATO</text>
  <text x="52" y="1710" class="about-text">🌐 Portfólio: <tspan class="contact-link">adanwilliamdev.github.io</tspan></text>
  <text x="52" y="1732" class="about-text">💼 LinkedIn: <tspan class="contact-link">linkedin.com/in/awosantos</tspan></text>
  <text x="52" y="1754" class="about-text">✉️  Email: <tspan class="contact-link">adan.william.dev@gmail.com</tspan></text>
  <text x="52" y="1776" class="about-text">🐙 GitHub: <tspan class="contact-link">github.com/adanwilliamdev</tspan></text>

  <text x="450" y="2166" text-anchor="middle" class="big-sub">Atualizado automaticamente via GitHub Actions</text>
</svg>